<mxfile host="app.diagrams.net" agent="Mozilla/5.0 (Windows NT 10.0; Win64; x64) AppleWebKit/537.36 (KHTML, like Gecko) Chrome/130.0.0.0 Safari/537.36" version="25.0.3">
  <diagram name="Trang-1" id="8K1XiuxhxCOyhfcTuzyn">
    <mxGraphModel dx="1475" dy="1796" grid="1" gridSize="10" guides="1" tooltips="1" connect="1" arrows="1" fold="1" page="1" pageScale="1" pageWidth="827" pageHeight="1169" math="0" shadow="0">
      <root>
        <mxCell id="0" />
        <mxCell id="1" parent="0" />
        <mxCell id="QY5TkbS7HgelhhC83756-2" value="Customer" style="rounded=0;whiteSpace=wrap;html=1;" vertex="1" parent="1">
          <mxGeometry x="150" y="-990" width="120" height="60" as="geometry" />
        </mxCell>
        <mxCell id="QY5TkbS7HgelhhC83756-3" value="&lt;u&gt;Id_Customer&lt;/u&gt;" style="ellipse;whiteSpace=wrap;html=1;" vertex="1" parent="1">
          <mxGeometry y="-1020" width="110" height="40" as="geometry" />
        </mxCell>
        <mxCell id="QY5TkbS7HgelhhC83756-4" value="Address" style="ellipse;whiteSpace=wrap;html=1;" vertex="1" parent="1">
          <mxGeometry x="20" y="-960" width="110" height="40" as="geometry" />
        </mxCell>
        <mxCell id="QY5TkbS7HgelhhC83756-5" value="Name_Customer" style="ellipse;whiteSpace=wrap;html=1;" vertex="1" parent="1">
          <mxGeometry x="90" y="-1070" width="110" height="40" as="geometry" />
        </mxCell>
        <mxCell id="QY5TkbS7HgelhhC83756-6" value="PhoneNumber_Customer" style="ellipse;whiteSpace=wrap;html=1;" vertex="1" parent="1">
          <mxGeometry x="230" y="-1060" width="150" height="40" as="geometry" />
        </mxCell>
        <mxCell id="QY5TkbS7HgelhhC83756-7" value="Email" style="ellipse;whiteSpace=wrap;html=1;" vertex="1" parent="1">
          <mxGeometry x="300" y="-990" width="104" height="40" as="geometry" />
        </mxCell>
        <mxCell id="QY5TkbS7HgelhhC83756-8" value="Wallet" style="ellipse;whiteSpace=wrap;html=1;" vertex="1" parent="1">
          <mxGeometry x="80" y="-900" width="110" height="40" as="geometry" />
        </mxCell>
        <mxCell id="QY5TkbS7HgelhhC83756-9" value="" style="endArrow=none;html=1;rounded=0;entryX=0;entryY=1;entryDx=0;entryDy=0;exitX=0.5;exitY=0;exitDx=0;exitDy=0;" edge="1" parent="1" source="QY5TkbS7HgelhhC83756-2" target="QY5TkbS7HgelhhC83756-6">
          <mxGeometry width="50" height="50" relative="1" as="geometry">
            <mxPoint x="360" y="-740" as="sourcePoint" />
            <mxPoint x="410" y="-790" as="targetPoint" />
          </mxGeometry>
        </mxCell>
        <mxCell id="QY5TkbS7HgelhhC83756-10" value="" style="endArrow=none;html=1;rounded=0;exitX=0.5;exitY=1;exitDx=0;exitDy=0;entryX=0.5;entryY=0;entryDx=0;entryDy=0;" edge="1" parent="1" source="QY5TkbS7HgelhhC83756-5" target="QY5TkbS7HgelhhC83756-2">
          <mxGeometry width="50" height="50" relative="1" as="geometry">
            <mxPoint x="370" y="-730" as="sourcePoint" />
            <mxPoint x="420" y="-780" as="targetPoint" />
          </mxGeometry>
        </mxCell>
        <mxCell id="QY5TkbS7HgelhhC83756-11" value="" style="endArrow=none;html=1;rounded=0;entryX=1;entryY=0.5;entryDx=0;entryDy=0;exitX=0;exitY=0.5;exitDx=0;exitDy=0;" edge="1" parent="1" source="QY5TkbS7HgelhhC83756-7" target="QY5TkbS7HgelhhC83756-2">
          <mxGeometry width="50" height="50" relative="1" as="geometry">
            <mxPoint x="380" y="-720" as="sourcePoint" />
            <mxPoint x="430" y="-770" as="targetPoint" />
          </mxGeometry>
        </mxCell>
        <mxCell id="QY5TkbS7HgelhhC83756-12" value="" style="endArrow=none;html=1;rounded=0;exitX=1;exitY=0.5;exitDx=0;exitDy=0;entryX=0;entryY=0;entryDx=0;entryDy=0;" edge="1" parent="1" source="QY5TkbS7HgelhhC83756-3" target="QY5TkbS7HgelhhC83756-2">
          <mxGeometry width="50" height="50" relative="1" as="geometry">
            <mxPoint x="185" y="-1010" as="sourcePoint" />
            <mxPoint x="220" y="-980" as="targetPoint" />
          </mxGeometry>
        </mxCell>
        <mxCell id="QY5TkbS7HgelhhC83756-13" value="" style="endArrow=none;html=1;rounded=0;exitX=1;exitY=0;exitDx=0;exitDy=0;entryX=0;entryY=0.5;entryDx=0;entryDy=0;" edge="1" parent="1" source="QY5TkbS7HgelhhC83756-4" target="QY5TkbS7HgelhhC83756-2">
          <mxGeometry width="50" height="50" relative="1" as="geometry">
            <mxPoint x="120" y="-990" as="sourcePoint" />
            <mxPoint x="160" y="-980" as="targetPoint" />
          </mxGeometry>
        </mxCell>
        <mxCell id="QY5TkbS7HgelhhC83756-14" value="" style="endArrow=none;html=1;rounded=0;entryX=0.421;entryY=1.026;entryDx=0;entryDy=0;entryPerimeter=0;exitX=0.756;exitY=0.062;exitDx=0;exitDy=0;exitPerimeter=0;" edge="1" parent="1" source="QY5TkbS7HgelhhC83756-8" target="QY5TkbS7HgelhhC83756-2">
          <mxGeometry width="50" height="50" relative="1" as="geometry">
            <mxPoint x="160" y="-903" as="sourcePoint" />
            <mxPoint x="160" y="-920" as="targetPoint" />
          </mxGeometry>
        </mxCell>
        <mxCell id="QY5TkbS7HgelhhC83756-18" value="Pet" style="rounded=0;whiteSpace=wrap;html=1;" vertex="1" parent="1">
          <mxGeometry x="630" y="-995" width="120" height="60" as="geometry" />
        </mxCell>
        <mxCell id="QY5TkbS7HgelhhC83756-19" value="&lt;u&gt;Id_Pet&lt;/u&gt;" style="ellipse;whiteSpace=wrap;html=1;" vertex="1" parent="1">
          <mxGeometry x="660" y="-1110" width="110" height="40" as="geometry" />
        </mxCell>
        <mxCell id="QY5TkbS7HgelhhC83756-20" value="Weight" style="ellipse;whiteSpace=wrap;html=1;" vertex="1" parent="1">
          <mxGeometry x="550" y="-1090" width="110" height="40" as="geometry" />
        </mxCell>
        <mxCell id="QY5TkbS7HgelhhC83756-21" value="Name_Pet" style="ellipse;whiteSpace=wrap;html=1;" vertex="1" parent="1">
          <mxGeometry x="774" y="-1110" width="110" height="40" as="geometry" />
        </mxCell>
        <mxCell id="QY5TkbS7HgelhhC83756-22" value="Species" style="ellipse;whiteSpace=wrap;html=1;" vertex="1" parent="1">
          <mxGeometry x="780" y="-1050" width="110" height="40" as="geometry" />
        </mxCell>
        <mxCell id="QY5TkbS7HgelhhC83756-23" value="Age" style="ellipse;whiteSpace=wrap;html=1;" vertex="1" parent="1">
          <mxGeometry x="786" y="-1000" width="104" height="40" as="geometry" />
        </mxCell>
        <mxCell id="QY5TkbS7HgelhhC83756-24" value="Wallet" style="ellipse;whiteSpace=wrap;html=1;" vertex="1" parent="1">
          <mxGeometry x="790" y="-900" width="110" height="40" as="geometry" />
        </mxCell>
        <mxCell id="QY5TkbS7HgelhhC83756-25" value="" style="endArrow=none;html=1;rounded=0;entryX=0;entryY=1;entryDx=0;entryDy=0;exitX=0.5;exitY=0;exitDx=0;exitDy=0;" edge="1" source="QY5TkbS7HgelhhC83756-18" target="QY5TkbS7HgelhhC83756-22" parent="1">
          <mxGeometry width="50" height="50" relative="1" as="geometry">
            <mxPoint x="840" y="-745" as="sourcePoint" />
            <mxPoint x="890" y="-795" as="targetPoint" />
          </mxGeometry>
        </mxCell>
        <mxCell id="QY5TkbS7HgelhhC83756-26" value="" style="endArrow=none;html=1;rounded=0;exitX=0.5;exitY=1;exitDx=0;exitDy=0;entryX=0.5;entryY=0;entryDx=0;entryDy=0;" edge="1" source="QY5TkbS7HgelhhC83756-21" target="QY5TkbS7HgelhhC83756-18" parent="1">
          <mxGeometry width="50" height="50" relative="1" as="geometry">
            <mxPoint x="850" y="-735" as="sourcePoint" />
            <mxPoint x="900" y="-785" as="targetPoint" />
          </mxGeometry>
        </mxCell>
        <mxCell id="QY5TkbS7HgelhhC83756-27" value="" style="endArrow=none;html=1;rounded=0;entryX=1;entryY=0.5;entryDx=0;entryDy=0;exitX=0;exitY=0.5;exitDx=0;exitDy=0;" edge="1" source="QY5TkbS7HgelhhC83756-23" target="QY5TkbS7HgelhhC83756-18" parent="1">
          <mxGeometry width="50" height="50" relative="1" as="geometry">
            <mxPoint x="860" y="-725" as="sourcePoint" />
            <mxPoint x="910" y="-775" as="targetPoint" />
          </mxGeometry>
        </mxCell>
        <mxCell id="QY5TkbS7HgelhhC83756-28" value="" style="endArrow=none;html=1;rounded=0;exitX=0.5;exitY=1;exitDx=0;exitDy=0;entryX=0;entryY=0;entryDx=0;entryDy=0;" edge="1" source="QY5TkbS7HgelhhC83756-19" target="QY5TkbS7HgelhhC83756-18" parent="1">
          <mxGeometry width="50" height="50" relative="1" as="geometry">
            <mxPoint x="665" y="-1015" as="sourcePoint" />
            <mxPoint x="700" y="-985" as="targetPoint" />
          </mxGeometry>
        </mxCell>
        <mxCell id="QY5TkbS7HgelhhC83756-29" value="" style="endArrow=none;html=1;rounded=0;entryX=0;entryY=0;entryDx=0;entryDy=0;exitX=0.5;exitY=1;exitDx=0;exitDy=0;" edge="1" source="QY5TkbS7HgelhhC83756-20" target="QY5TkbS7HgelhhC83756-18" parent="1">
          <mxGeometry width="50" height="50" relative="1" as="geometry">
            <mxPoint x="644" y="-1050" as="sourcePoint" />
            <mxPoint x="630" y="-965" as="targetPoint" />
          </mxGeometry>
        </mxCell>
        <mxCell id="QY5TkbS7HgelhhC83756-30" value="" style="endArrow=none;html=1;rounded=0;entryX=0.421;entryY=1.026;entryDx=0;entryDy=0;entryPerimeter=0;exitX=0.756;exitY=0.062;exitDx=0;exitDy=0;exitPerimeter=0;" edge="1" source="QY5TkbS7HgelhhC83756-24" target="QY5TkbS7HgelhhC83756-18" parent="1">
          <mxGeometry width="50" height="50" relative="1" as="geometry">
            <mxPoint x="640" y="-908" as="sourcePoint" />
            <mxPoint x="640" y="-925" as="targetPoint" />
          </mxGeometry>
        </mxCell>
        <mxCell id="QY5TkbS7HgelhhC83756-31" value="Id_Customer" style="ellipse;whiteSpace=wrap;html=1;" vertex="1" parent="1">
          <mxGeometry x="786" y="-950" width="110" height="40" as="geometry" />
        </mxCell>
        <mxCell id="QY5TkbS7HgelhhC83756-32" value="" style="endArrow=none;html=1;rounded=0;entryX=1;entryY=1;entryDx=0;entryDy=0;exitX=0;exitY=0.5;exitDx=0;exitDy=0;" edge="1" source="QY5TkbS7HgelhhC83756-31" parent="1" target="QY5TkbS7HgelhhC83756-18">
          <mxGeometry width="50" height="50" relative="1" as="geometry">
            <mxPoint x="880" y="-860" as="sourcePoint" />
            <mxPoint x="700" y="-760" as="targetPoint" />
          </mxGeometry>
        </mxCell>
        <mxCell id="QY5TkbS7HgelhhC83756-36" value="Medical_History" style="ellipse;shape=doubleEllipse;whiteSpace=wrap;html=1;" vertex="1" parent="1">
          <mxGeometry x="540" y="-890" width="100" height="40" as="geometry" />
        </mxCell>
        <mxCell id="QY5TkbS7HgelhhC83756-37" value="Vaccination_History" style="ellipse;shape=doubleEllipse;whiteSpace=wrap;html=1;" vertex="1" parent="1">
          <mxGeometry x="650" y="-890" width="130" height="40" as="geometry" />
        </mxCell>
        <mxCell id="QY5TkbS7HgelhhC83756-38" value="" style="endArrow=none;html=1;rounded=0;exitX=0.25;exitY=1;exitDx=0;exitDy=0;entryX=0.5;entryY=0;entryDx=0;entryDy=0;" edge="1" parent="1" source="QY5TkbS7HgelhhC83756-18" target="QY5TkbS7HgelhhC83756-36">
          <mxGeometry width="50" height="50" relative="1" as="geometry">
            <mxPoint x="654" y="-1046" as="sourcePoint" />
            <mxPoint x="640" y="-985" as="targetPoint" />
          </mxGeometry>
        </mxCell>
        <mxCell id="QY5TkbS7HgelhhC83756-39" value="" style="endArrow=none;html=1;rounded=0;exitX=0.25;exitY=1;exitDx=0;exitDy=0;entryX=0.5;entryY=0;entryDx=0;entryDy=0;" edge="1" parent="1" source="QY5TkbS7HgelhhC83756-18" target="QY5TkbS7HgelhhC83756-37">
          <mxGeometry width="50" height="50" relative="1" as="geometry">
            <mxPoint x="654" y="-1046" as="sourcePoint" />
            <mxPoint x="640" y="-985" as="targetPoint" />
          </mxGeometry>
        </mxCell>
        <mxCell id="QY5TkbS7HgelhhC83756-40" value="Disease" style="ellipse;whiteSpace=wrap;html=1;" vertex="1" parent="1">
          <mxGeometry x="600" y="-800" width="80" height="30" as="geometry" />
        </mxCell>
        <mxCell id="QY5TkbS7HgelhhC83756-41" value="Date" style="ellipse;whiteSpace=wrap;html=1;" vertex="1" parent="1">
          <mxGeometry x="520" y="-830" width="90" height="30" as="geometry" />
        </mxCell>
        <mxCell id="QY5TkbS7HgelhhC83756-42" value="Vaccine_Type" style="ellipse;whiteSpace=wrap;html=1;" vertex="1" parent="1">
          <mxGeometry x="750" y="-810" width="80" height="30" as="geometry" />
        </mxCell>
        <mxCell id="QY5TkbS7HgelhhC83756-43" value="Date" style="ellipse;whiteSpace=wrap;html=1;" vertex="1" parent="1">
          <mxGeometry x="660" y="-830" width="90" height="30" as="geometry" />
        </mxCell>
        <mxCell id="QY5TkbS7HgelhhC83756-45" value="" style="endArrow=none;html=1;rounded=0;exitX=0.5;exitY=1;exitDx=0;exitDy=0;entryX=0.5;entryY=0;entryDx=0;entryDy=0;" edge="1" parent="1" source="QY5TkbS7HgelhhC83756-36" target="QY5TkbS7HgelhhC83756-41">
          <mxGeometry width="50" height="50" relative="1" as="geometry">
            <mxPoint x="670" y="-925" as="sourcePoint" />
            <mxPoint x="600" y="-880" as="targetPoint" />
          </mxGeometry>
        </mxCell>
        <mxCell id="QY5TkbS7HgelhhC83756-46" value="" style="endArrow=none;html=1;rounded=0;exitX=0.5;exitY=1;exitDx=0;exitDy=0;entryX=0.5;entryY=0;entryDx=0;entryDy=0;" edge="1" parent="1" source="QY5TkbS7HgelhhC83756-36" target="QY5TkbS7HgelhhC83756-40">
          <mxGeometry width="50" height="50" relative="1" as="geometry">
            <mxPoint x="600" y="-840" as="sourcePoint" />
            <mxPoint x="575" y="-820" as="targetPoint" />
          </mxGeometry>
        </mxCell>
        <mxCell id="QY5TkbS7HgelhhC83756-47" value="" style="endArrow=none;html=1;rounded=0;exitX=0.5;exitY=1;exitDx=0;exitDy=0;entryX=0.5;entryY=0;entryDx=0;entryDy=0;" edge="1" parent="1" source="QY5TkbS7HgelhhC83756-37" target="QY5TkbS7HgelhhC83756-42">
          <mxGeometry width="50" height="50" relative="1" as="geometry">
            <mxPoint x="600" y="-840" as="sourcePoint" />
            <mxPoint x="650" y="-790" as="targetPoint" />
          </mxGeometry>
        </mxCell>
        <mxCell id="QY5TkbS7HgelhhC83756-48" value="" style="endArrow=none;html=1;rounded=0;exitX=0.5;exitY=1;exitDx=0;exitDy=0;entryX=0.5;entryY=0;entryDx=0;entryDy=0;" edge="1" parent="1" source="QY5TkbS7HgelhhC83756-37" target="QY5TkbS7HgelhhC83756-43">
          <mxGeometry width="50" height="50" relative="1" as="geometry">
            <mxPoint x="725" y="-840" as="sourcePoint" />
            <mxPoint x="800" y="-800" as="targetPoint" />
          </mxGeometry>
        </mxCell>
        <mxCell id="QY5TkbS7HgelhhC83756-49" value="Staff" style="rounded=0;whiteSpace=wrap;html=1;" vertex="1" parent="1">
          <mxGeometry x="-54" y="-660" width="120" height="60" as="geometry" />
        </mxCell>
        <mxCell id="QY5TkbS7HgelhhC83756-50" value="&lt;u&gt;Id_Staff&lt;/u&gt;" style="ellipse;whiteSpace=wrap;html=1;" vertex="1" parent="1">
          <mxGeometry x="-204" y="-690" width="110" height="40" as="geometry" />
        </mxCell>
        <mxCell id="QY5TkbS7HgelhhC83756-52" value="Name_Staff" style="ellipse;whiteSpace=wrap;html=1;" vertex="1" parent="1">
          <mxGeometry x="-114" y="-740" width="110" height="40" as="geometry" />
        </mxCell>
        <mxCell id="QY5TkbS7HgelhhC83756-53" value="PhoneNumber_Staff" style="ellipse;whiteSpace=wrap;html=1;" vertex="1" parent="1">
          <mxGeometry x="26" y="-730" width="114" height="40" as="geometry" />
        </mxCell>
        <mxCell id="QY5TkbS7HgelhhC83756-56" value="" style="endArrow=none;html=1;rounded=0;entryX=0;entryY=1;entryDx=0;entryDy=0;exitX=0.5;exitY=0;exitDx=0;exitDy=0;" edge="1" source="QY5TkbS7HgelhhC83756-49" target="QY5TkbS7HgelhhC83756-53" parent="1">
          <mxGeometry width="50" height="50" relative="1" as="geometry">
            <mxPoint x="156" y="-410" as="sourcePoint" />
            <mxPoint x="206" y="-460" as="targetPoint" />
          </mxGeometry>
        </mxCell>
        <mxCell id="QY5TkbS7HgelhhC83756-57" value="" style="endArrow=none;html=1;rounded=0;exitX=0.5;exitY=1;exitDx=0;exitDy=0;entryX=0.5;entryY=0;entryDx=0;entryDy=0;" edge="1" source="QY5TkbS7HgelhhC83756-52" target="QY5TkbS7HgelhhC83756-49" parent="1">
          <mxGeometry width="50" height="50" relative="1" as="geometry">
            <mxPoint x="166" y="-400" as="sourcePoint" />
            <mxPoint x="216" y="-450" as="targetPoint" />
          </mxGeometry>
        </mxCell>
        <mxCell id="QY5TkbS7HgelhhC83756-59" value="" style="endArrow=none;html=1;rounded=0;exitX=1;exitY=0.5;exitDx=0;exitDy=0;entryX=0;entryY=0;entryDx=0;entryDy=0;" edge="1" source="QY5TkbS7HgelhhC83756-50" target="QY5TkbS7HgelhhC83756-49" parent="1">
          <mxGeometry width="50" height="50" relative="1" as="geometry">
            <mxPoint x="-19" y="-680" as="sourcePoint" />
            <mxPoint x="16" y="-650" as="targetPoint" />
          </mxGeometry>
        </mxCell>
      </root>
    </mxGraphModel>
  </diagram>
</mxfile>
